<?xml version="1.0" encoding="UTF-8"?>
<svg id="Capa_2" data-name="Capa 2" xmlns="http://www.w3.org/2000/svg" viewBox="0 0 1170.98 597.5">
  <defs>
    <style>
      .cls-1 {
        fill: #f4c11e;
      }

      .cls-2 {
        fill: #009fe2;
      }

      .cls-3 {
        fill: #9abe37;
      }

      .cls-4 {
        fill: #fd3861;
      }
    </style>
  </defs>
  <g id="Capa_1-2" data-name="Capa 1">
    <g>
      <path class="cls-3" d="M716.74,245.87c0-32.72,19.72-53.15,50.72-53.15,24.15,0,44.15,13.29,48.15,38.72h-24.43c-3.14-12-12.29-17.86-23.72-17.86-16.43,0-25.58,12.15-25.58,32.29s9.14,32.29,25.58,32.29c12,0,22-7,24.29-20.57h24.15c-3.14,27.15-23.43,41.44-48.44,41.44-30.29,0-50.72-20.43-50.72-53.15Z"/>
      <path class="cls-3" d="M874.21,296.74c-1-1.86-1.71-5-1.86-8.29-4.72,6.29-12.72,10-23.58,10-15.43,0-26.86-7.86-26.86-22.58,0-12.72,7.57-21.15,28.86-23l11.57-1c6.29-.71,9.57-2.57,9.57-7.29,0-4.43-2.43-7.43-11.29-7.43s-12.29,2.14-13,9.72h-22.15c1.14-16.29,11.57-25.58,35.29-25.58s32.86,8.72,32.86,22.72v39.15c0,5.43,1,10.72,3,13.57h-22.43ZM871.92,267.73v-5.43c-1.57,1.71-4,2.43-7.43,2.86l-9.14,1c-7.57.86-10.72,3.72-10.72,8.86s3.86,8.43,10.86,8.43c8.57,0,16.43-4.14,16.43-15.72Z"/>
      <path class="cls-3" d="M977.8,195.01v101.73h-21.72v-9.57c-4.72,7-11.86,11.29-22.15,11.29-20,0-32.15-15.15-32.15-38.58s12.15-38.58,32.15-38.58c9.86,0,16.86,4,21.57,10.57v-36.86h22.29ZM955.94,259.88c0-14-5.86-20.72-15.86-20.72s-15.72,7.29-15.72,21.29,5.86,20.15,15.72,20.15,15.86-6.72,15.86-20.72Z"/>
      <path class="cls-3" d="M1039.24,296.74c-1-1.86-1.71-5-1.86-8.29-4.72,6.29-12.72,10-23.58,10-15.43,0-26.86-7.86-26.86-22.58,0-12.72,7.57-21.15,28.86-23l11.57-1c6.29-.71,9.57-2.57,9.57-7.29,0-4.43-2.43-7.43-11.29-7.43s-12.29,2.14-13,9.72h-22.15c1.14-16.29,11.57-25.58,35.29-25.58s32.86,8.72,32.86,22.72v39.15c0,5.43,1,10.72,3,13.57h-22.43ZM1036.96,267.73v-5.43c-1.57,1.71-4,2.43-7.43,2.86l-9.14,1c-7.57.86-10.72,3.72-10.72,8.86s3.86,8.43,10.86,8.43c8.57,0,16.43-4.14,16.43-15.72Z"/>
      <path class="cls-4" d="M859.91,315.47v101.73h-24.15v-41.15h-40.86v41.15h-24.15v-101.73h24.15v38.86h40.86v-38.86h24.15Z"/>
      <path class="cls-4" d="M870.49,380.34c0-23.43,15.15-38.58,38.72-38.58s38.58,15.15,38.58,38.58-15.15,38.58-38.58,38.58-38.72-15.15-38.72-38.58ZM925.21,380.34c0-14-6.14-20.72-16-20.72s-16.15,6.72-16.15,20.72,6.14,20.72,16.15,20.72,16-6.72,16-20.72Z"/>
      <path class="cls-4" d="M1030.66,343.48v71.44c0,19.86-13.43,32.01-37.72,32.01-23,0-34.86-11.14-35.72-27h22c.57,6.86,5.29,10.29,14.14,10.29,10,0,15-5.43,15-14.43v-10.57c-4.43,6.43-11.15,10.43-21.15,10.43-19.57,0-32.58-15.29-32.58-37.01s12.57-36.86,32.15-36.86c10.57,0,17.72,4.43,22.15,11.43v-9.72h21.72ZM1008.8,378.63c0-12.43-5.86-19-15.86-19s-15.72,7.14-15.72,19.29,5.86,18.86,15.72,18.86,15.86-6.72,15.86-19.15Z"/>
      <path class="cls-4" d="M1092.1,417.21c-1-1.86-1.71-5-1.86-8.29-4.72,6.29-12.72,10-23.58,10-15.43,0-26.86-7.86-26.86-22.58,0-12.72,7.57-21.15,28.86-23l11.57-1c6.29-.71,9.57-2.57,9.57-7.29,0-4.43-2.43-7.43-11.29-7.43s-12.29,2.14-13,9.72h-22.15c1.14-16.29,11.57-25.58,35.29-25.58s32.86,8.72,32.86,22.72v39.15c0,5.43,1,10.72,3,13.57h-22.43ZM1089.82,388.2v-5.43c-1.57,1.71-4,2.43-7.43,2.86l-9.14,1c-7.57.86-10.72,3.72-10.72,8.86s3.86,8.43,10.86,8.43c8.57,0,16.43-4.14,16.43-15.72Z"/>
      <path class="cls-4" d="M1170.98,342.62v20.29h-5.72c-12.43,0-19.57,6.14-19.57,20v34.29h-22.29v-73.73h21.72v13.72c3.14-9.14,10-14.86,21-14.86,1.71,0,3.29.14,4.86.29Z"/>
      <path class="cls-1" d="M775.9,477.52l40.86,60.15h-28.58l-29.29-44.01-13.72,13.57v30.43h-24.15v-101.73h24.15v44.01l42.15-44.01h29.43l-40.86,41.58Z"/>
      <path class="cls-1" d="M821.91,463.95h22.29v73.73h-22.29v-73.73ZM822.48,436.66h21.29v18.86h-21.29v-18.86Z"/>
      <path class="cls-1" d="M930.22,435.94v101.73h-21.72v-9.57c-4.72,7-11.86,11.29-22.15,11.29-20,0-32.15-15.15-32.15-38.58s12.15-38.58,32.15-38.58c9.86,0,16.86,4,21.57,10.57v-36.86h22.29ZM908.35,500.81c0-14-5.86-20.72-15.86-20.72s-15.72,7.29-15.72,21.29,5.86,20.15,15.72,20.15,15.86-6.72,15.86-20.72Z"/>
      <path class="cls-1" d="M938.65,514.24h21.72c.86,8,4.86,10.72,14.15,10.72s12.43-2.71,12.43-7.14-2.71-6.57-12.72-8.14l-9.57-1.57c-15.57-2.43-24.86-9.43-24.86-22.58,0-14.72,11.57-23.29,33.15-23.29,24.86,0,33.58,10.86,34.29,25.29h-20.72c-.29-8-5.57-10.43-13.57-10.43s-11.29,2.71-11.29,7,3.57,6.29,10.72,7.43l11,1.57c17.43,2.71,25.86,9.72,25.86,22.86,0,15.29-13,23.86-35.15,23.86s-34.15-7.29-35.43-25.58Z"/>
      <g>
        <path class="cls-4" d="M668.93,351.54c4.17-6.76,8.39-13.58,13.89-19.17,5.5-5.6,12.48-9.94,20.07-10.64,5.13-.47,10.57.89,14.33,4.58,2.39,2.34,3.98,5.48,4.98,8.76,2.48,8.1,1.53,17.09-1.37,25.07-2.9,7.98-7.63,15.08-12.75,21.71-9.83,12.73-22.46,22.96-34.49,33.45-1.51,1.32-3.01,2.64-4.5,3.97-.13-.11-.27-.23-.4-.34"/>
        <path class="cls-4" d="M56.57,419.05c-.13-.11-.27-.23-.4-.34C34.23,400.2,3.71,382.66.25,350.28c-1.19-11.17,1.79-24.4,11.43-29.23,9.44-4.73,20.65.81,28.45,8.08,6.68,6.23,12.22,13.8,16.26,22.19"/>
        <g>
          <path class="cls-2" d="M315.06,266.5c-.2.1-.41.21-.6.29.16,0,.38,0,.64-.03l-.05-.26Z"/>
          <path class="cls-2" d="M668.45,418.71c-21.94-18.52-52.45-36.05-55.91-68.43-1.19-11.17,1.79-24.4,11.43-29.23,9.44-4.73,20.65.81,28.45,8.08,6.68,6.23,12.22,13.8,16.26,22.19,0,0,.01-.02.02-.03v-126.57c0-26.25-13.34-50.71-35.4-64.93L404.48,12.32c-25.48-16.42-58.22-16.43-83.7,0L91.97,159.78c-22.07,14.22-35.4,38.68-35.4,64.93v126.34c4.12-6.67,8.3-13.38,13.73-18.9,5.5-5.6,12.48-9.94,20.07-10.64,5.13-.47,10.57.89,14.33,4.58,2.39,2.34,3.98,5.48,4.98,8.76,2.48,8.1,1.53,17.09-1.37,25.07-2.9,7.98-7.63,15.08-12.75,21.71-9.83,12.73-22.46,22.96-34.49,33.45-1.51,1.32-3.01,2.64-4.5,3.97,0,0,0,0,0,0v101.18c0,42.66,34.59,77.24,77.25,77.25l457.63.02c42.67,0,77.25-34.59,77.25-77.25v-101.33c-.08-.07-.16-.14-.25-.2ZM571.69,346.17s12.37-2,13.51.49c1.59,3.48-11.2,6.93-11.2,6.93,0,0,7.6-.08,7,2.75-.8,3.78-15.88,3.11-26.19,2.62,0,0-18.24,7.72-31.57,8.96-.93,2.89-2.43,4.38-4.91,5.1-6.87,1.99-34.21-3.49-34.21-3.49,0,0,3.61,20.03,5.12,21.97l-4.5,1.18v.02c1.76.4,10.56,3.07,13.73,16.79,3.09,13.34-1.75,44.36-3.25,52.01-.28,1.42-.51,2.78-1.74,3.54-.24.15-.54.3-.85.45.45,2.08,14.17,6.13,11.69,15.18-1.03,3.73-8.31,4.16-16.09,4.55-6.45.32-12.74.89-15.6-1-5.53-3.65-2.6-11.64-1.93-16.92.09-.7.18-1.45.26-2.24-2.86-1.18-2.23-2.17-2.23-2.17,0,0,2.38-20.87,2.33-29.69-.02-3.09-3.26-3.52-8.09-4.54,0,0-14.4,8.11-16.58,19.88-2.18,11.77-5.47,66.84-11.12,71.08-.01,0-.02.01-.03.02.41,5.33,1.34,21.33-1.8,27.03-5.22,9.5-18.79,6.58-22.31-1.35-3.16-7.13-1.75-18.65-.53-24.67.1-.49.24-.97.39-1.45-1.45-2.15-1.99-6.75-1.1-17.81,1.18-14.5,6.87-46.49,2.59-59.29-3.6-10.77-1.89-25.65-1.25-30.11l-3.53.93,9.08-63.96s-9.63-3.95-21-12.88c-1.08-.84-8.12-7.95-9.18-10.16-.79-1.65.09-3.29,1.04-4.42-7.48-8.53-22.11-26.32-22.11-26.32-.86-.18-1.83-.5-2.87-.92-1.06.44-2.06.76-2.94.95,0,0-14.62,17.78-22.11,26.32.95,1.14,1.83,2.77,1.04,4.42-1.06,2.21-8.11,9.31-9.18,10.16-11.37,8.93-21,12.88-21,12.88l1.93,13.57c1.99,4.34,4.35,9.52,7.2,15.74,15.57,34.03,19.12,41.28,15.49,46.11-3.26,4.33-9.06,2.44-18.1,2.26-.06,5.12-.61,10.7-2.21,15.47-4.28,12.81,1.41,44.79,2.59,59.29.9,11.05.36,15.66-1.1,17.81.15.48.29.97.39,1.45,1.23,6.02,2.64,17.54-.53,24.67-3.52,7.93-17.09,10.86-22.31,1.35-3.13-5.7-2.21-21.7-1.8-27.03-.01,0-.02-.01-.03-.02-5.65-4.24-8.93-59.31-11.12-71.08-.65-3.48-2.36-6.64-4.46-9.36-.59.12-1.2.23-1.87.32-6.67.96-11.64-.13-18.25-2.15.45,9.93,2.23,25.54,2.23,25.54,0,0,.63.99-2.23,2.17.08.78.17,1.53.26,2.24.67,5.29,3.6,13.27-1.93,16.93-2.86,1.89-9.15,1.32-15.6,1-7.77-.39-15.06-.83-16.09-4.55-2.49-9.04,11.23-13.09,11.69-15.18-.32-.15-.61-.3-.85-.45-1.23-.76-1.46-2.12-1.74-3.54-.94-4.82-3.21-18.91-3.99-32.01-16.6-3.51-21.35-2.1-23.19-6.55-4.94-11.94,25.52-30.61,34.57-52.7-7.71,1.41-25.2,4.32-30.5,2.78-2.48-.72-3.97-2.21-4.91-5.1-13.33-1.24-31.57-8.96-31.57-8.96-10.31.49-25.39,1.16-26.19-2.62-.6-2.83,7-2.75,7-2.75,0,0-12.78-3.45-11.2-6.93,1.14-2.49,13.51-.49,13.51-.49,0,0-15.48-2.74-15.19-7.1.25-3.89,16.92,1.69,16.92,1.69-12.99-5.11-11.82-10.67-.34-6.61,5.59,1.98,8.65,2.54,10.22,2.68.88.07,1.61-.52,1.58-1.28-.04-.99-.37-2.54-1.61-4.55-3.1-5.05-2.27-13.1,2.86-8.86,5.14,4.25,11.32,13.96,11.32,13.96,5.1,2.39,15.74,3.06,21.27,3.25.45-3.87,1.64-5.64,4.45-5.74,5.08-.18,25.61-6.37,32-8.83,9.36-3.61,16.38-4.08,18.6-7.55.61-.96.32-1.75.03-3.25-3.04.32-6.07.41-9.05.22-10.42-.67-28.91-10.96-35.89-24.19-3.22-6.11-4.94-23.75-5.65-33.21-.31.09-.61.19-.91.27l-7.05,35.89s-17.83-24.34-18.51-52.19c-.63-5.21-.53-10.36.58-15.61,1.34-6.28,4.38-12.81,7.44-18.43,7.09-13,19.42-20.93,32.99-25.7-.02-.31-.02-.62-.03-.93,0-.2-.02-.4-.02-.6,0-.55.01-1.1.04-1.65.01-.22.03-.44.05-.66,0-.01,0-.02,0-.04,0-.04,0-.09,0-.13.02-.28.04-.57.07-.85.03-.26.06-.52.09-.77.04-.3.07-.6.11-.9.04-.27.09-.54.14-.82.05-.28.1-.57.15-.85.05-.28.12-.56.18-.84.06-.27.12-.55.19-.82.07-.28.14-.56.22-.84.07-.27.14-.53.22-.8.08-.29.17-.57.26-.85.08-.26.16-.52.25-.78.1-.28.19-.57.3-.85.09-.25.18-.51.28-.76.11-.28.22-.57.33-.85.1-.25.2-.49.3-.73.12-.28.24-.57.37-.85.11-.24.22-.48.33-.72.13-.28.26-.56.4-.84.11-.23.23-.46.35-.69.14-.28.29-.56.44-.84.12-.22.24-.44.36-.66.16-.28.31-.56.47-.84.12-.21.25-.42.37-.63.17-.28.34-.56.51-.84.12-.19.25-.38.37-.57.18-.28.37-.57.55-.85.11-.17.23-.33.34-.49.21-.3.41-.6.62-.89,0,0,0,0,0,0,0,0,0,0,0,0,.66-.9,1.34-1.78,2.04-2.61,8.49-10.1,23.42-11.27,30.91-11.16,3.58.02,8.86.37,14.29,1.84.05-.42.1-.83.16-1.25.6-4.24,1.55-8.55,2.93-12.94,1.01-3.2,2.26-6.39,4.01-9.55,1.2-2.17,2.57-4.26,4.28-6.19.33-.38.7-.72,1.03-1.06.6,0,.39.55.37.92-.18,3.92.55,7.33,1.8,10.44.07.18.19.34.32.57,1.56-.63,3.13-1.34,4.68-1.87,1.63-.55,3.25-1.01,4.85-1.36,1.54-.34,3.06-.56,4.56-.74,1.5-.17,3-.34,4.56-.18-.36.33-.58.58-.82.75-1.27.9-2.57,1.72-3.82,2.66-4.5,3.39-7.96,7.57-10.48,12.45-1.67,3.24-2.85,6.5-4.05,9.76-.48,1.31-1,2.62-1.49,3.94.07.05.13.11.2.16.53.44,1.03.92,1.53,1.41.06.06.13.12.19.19.08.08.16.17.24.26.47.49.92.99,1.35,1.53.94,1.16,1.83,2.39,2.68,3.66.82-.38,1.64-.75,2.47-1.11,2.36-1.05,4.72-2.08,7.08-3.21,1.51-.72,3.01-1.53,4.5-2.41,5.44-3.21,9.76-7.63,12.91-13.25.61-1.09,1.19-2.19,1.82-3.34.52.88.7,2.23.52,5.91-.1,2.1-.3,4.26-.7,6.45-.4,2.18-1.11,4.44-1.73,6.81,1.73.76,3.76,1.14,5.86,1.41,2.05.26,4.25.12,6.4-.11.13.48-.19.75-.41,1-1.58,1.76-3.35,3.22-5.21,4.54-2.45,1.73-4.96,3.08-7.51,4.24-4.93,2.25-9.79,3.68-14.63,4.82-1.79.42-3.56.79-5.33,1.12,1.27,4.36,1.8,8.88,1.33,13.28,1.89.68,3.74,1.42,5.55,2.28,5.64,2.66,14.39,7.62,17.74,13.11,2.69,3.01,4.97,6.42,6.8,9.94,2.96,5.68,5.87,12.27,7.09,18.57,1.02,5.27,1.01,10.42.29,15.62-1.21,27.84-19.51,51.83-19.51,51.83l-1.31-7.41c-8.73,8-17.18.3-18.27,2.14-4.18,7.04-12.26,13.7-21.94,18.44.55,2.05,1.34,4.61,2.08,5.41,1.59,1.74,11.47-3.93,14.66-5.28,3.61-1.53,18.85-9.83,25.16-11.29,1-.23,1.63.21,2.47,1.27,4.18-2.85,10.65-7.41,16.84-12.31,2.22-1.76,3.65-3.45,4.55-5.06-.96-1.24-1.79-2.49-2.41-3.71-3.63-7.16,2.59-9.82,2.59-9.82.1-4.97,3.9-6.07,5.75-6.32.35-.26.7-.5,1.04-.7.39-4.63,2.95-5.38,5.12-5.15.68-1.45,1.71-3.03,3.23-4.09.51-.9,1.5-1.48,3.31-1.21,1.52-.13,2.42.36,2.9,1.14,1.57,1.08,2.63,2.71,3.32,4.19,2.16-.22,4.68.54,5.09,5.08.38.23.77.5,1.16.79,1.89.27,5.54,1.42,5.64,6.3,0,0,6.22,2.66,2.59,9.82-.62,1.22-1.44,2.45-2.39,3.68.9,1.6,2.32,3.28,4.53,5.02,6.18,4.91,12.66,9.46,16.84,12.31.84-1.06,1.46-1.5,2.47-1.27,6.31,1.46,21.55,9.76,25.16,11.29,3.2,1.35,13.07,7.02,14.66,5.28.73-.8,1.53-3.36,2.08-5.41-9.68-4.74-17.76-11.39-21.94-18.43-1.12-1.89-9.95,6.25-18.9-2.74-7.36-7.39-6.74-14.72-3.65-17.79,2.64-2.63,7.24-1.53,8.45-1.57-8.98-3.99-30.93-28.49-21.2-52.36,9.73-23.87,22.61-21.4,22.61-21.4-1.29-5,1.56-13.31,15.29-25.89,13.73-12.57,43.48-6.11,45.49-8.28s.12-6.1-.51-8.35c-.63-2.25,5.42-2.38,13.33,3.71,7.91,6.09,6.34,15.59,6.34,15.59,0,0,10.99-2.49,21.63,4.7,10.65,7.19,7.43,24.92,7.51,26.19.08,1.26,3.03,2.77,4.23,1.76,2.17-1.81,3.64-6.68,4.34-7.9.88-1.53,8.07,8.62,7.26,18.58-.81,9.96-9.5,10.41-9.5,10.41,0,0,2.33,9.91,8,10.14,5.66.23,8.57-3.22,8.92.73.36,4.2-17.62,18.79-23.99,16.24,0,0-1.56,30.86-6.05,39.37-6.98,13.23-25.47,23.51-35.89,24.19-2.98.19-6.01.1-9.05-.22-.28,1.5-.58,2.3.03,3.25,2.23,3.48,9.25,3.95,18.6,7.55,6.39,2.46,26.92,8.65,32,8.83,2.81.1,4,1.87,4.45,5.74,5.52-.19,16.16-.86,21.27-3.25,0,0,6.18-9.71,11.32-13.96,5.14-4.25,5.97,3.81,2.86,8.86-1.24,2.01-1.56,3.56-1.61,4.55-.03.76.7,1.35,1.58,1.28,1.57-.13,4.63-.7,10.22-2.68,11.47-4.06,12.64,1.5-.34,6.61,0,0,16.67-5.58,16.92-1.69.28,4.37-15.19,7.1-15.19,7.1Z"/>
        </g>
      </g>
    </g>
  </g>
</svg>